<?xml version="1.0" encoding="utf-8"?>
<!-- Generator: Adobe Illustrator 16.0.0, SVG Export Plug-In . SVG Version: 6.00 Build 0)  -->
<!DOCTYPE svg PUBLIC "-//W3C//DTD SVG 1.1//EN" "http://www.w3.org/Graphics/SVG/1.1/DTD/svg11.dtd">
<svg version="1.1" id="Layer_1" xmlns="http://www.w3.org/2000/svg" xmlns:xlink="http://www.w3.org/1999/xlink" x="0px" y="0px"
	 width="50px" height="50px" viewBox="0 0 50 50" enable-background="new 0 0 50 50" xml:space="preserve">
<g>
	<circle fill="#29D850" cx="25" cy="25" r="25"/>
	<path fill="#FFFFFF" d="M30.701,37.317L21.328,25L30.7,12.682c1.103-1.449,0.915-3.446-0.419-4.461s-3.309-0.663-4.411,0.786
		l-10.58,13.905c-0.414,0.544-0.646,1.165-0.704,1.782c-0.003,0.038,0.002,0.077,0,0.115c-0.013,0.216-0.002,0.43,0.027,0.641
		c0.079,0.57,0.295,1.137,0.677,1.638l10.58,13.905c1.102,1.448,3.076,1.801,4.41,0.785C31.615,40.765,31.803,38.767,30.701,37.317z
		"/>
</g>
</svg>
