<?xml version="1.0" encoding="utf-8"?>
<!-- Generator: Adobe Illustrator 16.0.0, SVG Export Plug-In . SVG Version: 6.00 Build 0)  -->
<!DOCTYPE svg PUBLIC "-//W3C//DTD SVG 1.1//EN" "http://www.w3.org/Graphics/SVG/1.1/DTD/svg11.dtd">
<svg version="1.1" id="Layer_2" xmlns="http://www.w3.org/2000/svg" xmlns:xlink="http://www.w3.org/1999/xlink" x="0px" y="0px"
	 width="631.972px" height="112.103px" viewBox="0 0 631.972 112.103" enable-background="new 0 0 631.972 112.103"
	 xml:space="preserve">
<g>
	<g>
		<circle fill="#D5D0D0" cx="19.745" cy="19.746" r="19.745"/>
		<circle fill="#D5D0D0" cx="19.745" cy="92.356" r="19.745"/>
		<circle fill="#D5D0D0" cx="92.038" cy="92.356" r="19.745"/>
		<circle fill="#27D94E" cx="92.038" cy="19.745" r="19.745"/>
	</g>
	<g>
		<path fill="#ffffff" d="M157.7,91.622V15.737c0-1.053,0.432-1.881,1.298-2.484c0.865-0.602,1.863-0.903,2.993-0.903h19.423
			c7.075,0,12.665,1.394,16.769,4.178c4.102,2.786,6.154,7.831,6.154,15.132c0,4.668-0.847,8.602-2.541,11.8
			c-1.694,3.201-4.047,5.44-7.058,6.719c3.839,1.506,6.737,3.726,8.695,6.662c1.957,2.936,2.936,7.115,2.936,12.535v2.031
			c0,8.131-2.033,14.08-6.098,17.842c-4.065,3.766-9.485,5.646-16.261,5.646h-22.02c-1.281,0-2.315-0.318-3.105-0.959
			C158.095,93.298,157.7,92.524,157.7,91.622z M167.185,46.226h14.116c4.667,0,8.091-1.053,10.276-3.162
			c2.183-2.107,3.275-5.458,3.275-10.05c0-8.055-4.63-12.083-13.89-12.083h-13.777V46.226z M167.185,86.313h15.245
			c9.636,0,14.454-5.156,14.454-15.471v-1.92c0-5.193-1.224-8.957-3.67-11.291c-2.447-2.333-6.042-3.501-10.784-3.501h-15.245
			V86.313z"/>
		<path fill="#ffffff" d="M221.218,25.053c-1.168-1.09-1.75-2.352-1.75-3.783c0-1.429,0.564-2.671,1.694-3.726
			c1.129-1.054,2.521-1.581,4.178-1.581c1.581,0,2.936,0.527,4.065,1.581c1.129,1.055,1.694,2.297,1.694,3.726
			c0,1.431-0.564,2.693-1.694,3.783c-1.129,1.092-2.484,1.637-4.065,1.637C223.759,26.69,222.385,26.146,221.218,25.053z
			 M220.71,91.509V44.645c0-0.977,0.452-1.768,1.355-2.371c0.903-0.602,1.994-0.903,3.275-0.903c1.355,0,2.484,0.302,3.388,0.903
			c0.903,0.604,1.355,1.394,1.355,2.371v46.864c0,0.828-0.471,1.6-1.412,2.314c-0.942,0.717-2.052,1.072-3.331,1.072
			c-1.281,0-2.372-0.338-3.275-1.016S220.71,92.411,220.71,91.509z"/>
		<path fill="#ffffff" d="M244.197,73.892V62.036c0-5.797,2.202-10.803,6.606-15.02c4.404-4.215,9.692-6.324,15.866-6.324
			c5.872,0,10.954,1.966,15.245,5.897s6.437,8.854,6.437,14.769c0,2.209-0.265,3.98-0.791,5.314
			c-0.527,1.334-1.337,2.285-2.428,2.855c-1.092,0.572-2.108,0.936-3.049,1.088c-0.942,0.15-2.202,0.227-3.783,0.227h-24.73v3.389
			c0,4.141,1.486,7.453,4.46,9.938c2.973,2.484,6.832,3.727,11.575,3.727c2.484,0,4.647-0.377,6.493-1.131
			c1.844-0.75,3.331-1.484,4.46-2.201c1.129-0.715,2.032-1.072,2.71-1.072c1.053,0,1.957,0.471,2.71,1.41
			c0.752,0.943,1.129,1.902,1.129,2.881c0,1.732-1.713,3.5-5.138,5.307c-3.427,1.807-7.661,2.711-12.704,2.711
			c-7.379,0-13.401-2.014-18.068-6.041C246.53,85.731,244.197,80.442,244.197,73.892z M253.57,64.407h20.891
			c1.957,0,3.275-0.244,3.953-0.734c0.677-0.488,1.016-1.449,1.016-2.879c0-3.389-1.242-6.361-3.727-8.921
			c-2.484-2.559-5.533-3.84-9.146-3.84c-3.54,0-6.588,1.186-9.147,3.557c-2.56,2.372-3.839,5.29-3.839,8.751V64.407z"/>
		<path fill="#ffffff" d="M302.578,91.509v-79.16c0-0.978,0.432-1.768,1.299-2.371c0.864-0.602,1.976-0.903,3.331-0.903
			s2.484,0.301,3.388,0.903c0.903,0.604,1.355,1.394,1.355,2.371v79.16c0,0.828-0.471,1.6-1.412,2.314
			c-0.942,0.717-2.052,1.072-3.331,1.072c-1.281,0-2.372-0.338-3.275-1.016S302.578,92.411,302.578,91.509z"/>
		<path fill="#ffffff" d="M329.227,91.509v-79.16c0-0.978,0.432-1.768,1.299-2.371c0.864-0.602,1.976-0.903,3.331-0.903
			s2.484,0.301,3.388,0.903c0.903,0.604,1.355,1.394,1.355,2.371v52.847l25.747-23.261c0.677-0.526,1.354-0.791,2.032-0.791
			c1.129,0,2.202,0.452,3.218,1.355c1.017,0.904,1.525,1.92,1.525,3.049c0,0.903-0.34,1.657-1.018,2.258l-15.695,13.889
			l18.745,27.215c0.376,0.604,0.564,1.168,0.564,1.693c0,1.129-0.564,2.203-1.694,3.219c-1.129,1.016-2.297,1.525-3.5,1.525
			c-1.055,0-1.92-0.49-2.598-1.469l-17.955-26.311l-9.373,8.355v15.584c0,0.828-0.471,1.6-1.412,2.314
			c-0.942,0.717-2.052,1.072-3.331,1.072c-1.281,0-2.372-0.338-3.275-1.016S329.227,92.411,329.227,91.509z"/>
		<path fill="#ffffff" d="M381.173,73.892V62.374c0-5.796,2.202-10.858,6.605-15.188c4.404-4.328,9.617-6.493,15.641-6.493
			c6.021,0,11.252,2.146,15.695,6.437c4.441,4.291,6.662,9.373,6.662,15.245v11.518c0,5.723-2.24,10.805-6.719,15.246
			s-9.693,6.662-15.639,6.662c-5.948,0-11.143-2.203-15.584-6.605C383.393,84.79,381.173,79.69,381.173,73.892z M390.546,73.858
			c0,3.52,1.279,6.625,3.839,9.318c2.559,2.693,5.57,4.041,9.034,4.041c3.537,0,6.586-1.365,9.146-4.098
			c2.559-2.73,3.84-5.816,3.84-9.262V62.409c0-3.367-1.281-6.397-3.84-9.092c-2.561-2.694-5.609-4.042-9.146-4.042
			c-3.539,0-6.569,1.348-9.091,4.042c-2.522,2.694-3.782,5.725-3.782,9.092V73.858z"/>
		<path fill="#ffffff" d="M434.81,45.21c0-1.129,0.621-2.089,1.863-2.88c1.242-0.79,2.541-1.186,3.896-1.186
			c1.58,0,2.598,0.604,3.049,1.807l13.664,37.942l10.613-34.216c0.506-1.505,1.623-2.258,3.355-2.258
			c1.881,0,3.086,0.753,3.613,2.258l10.389,34.554l13.777-38.28c0.375-1.203,1.354-1.807,2.936-1.807
			c1.355,0,2.672,0.396,3.951,1.186c1.279,0.791,1.92,1.75,1.92,2.88c0,0.604-0.15,1.205-0.451,1.807L489.771,93.88
			c-0.527,1.355-1.77,2.033-3.727,2.033c-2.033,0-3.314-0.68-3.84-2.037l-10.953-33.242L460.47,93.479
			c-0.498,1.621-1.785,2.434-3.865,2.434c-1.959,0-3.238-0.791-3.84-2.373l-17.504-46.523C434.96,46.113,434.81,45.512,434.81,45.21
			z"/>
		<path fill="#ffffff" d="M515.661,87.218c0-0.979,0.32-1.938,0.961-2.881c0.639-0.939,1.41-1.41,2.314-1.41
			c0.602,0,1.469,0.471,2.598,1.412c1.129,0.943,2.746,1.863,4.855,2.768c2.105,0.902,4.59,1.354,7.453,1.354
			c3.764,0,6.492-0.686,8.186-2.057c1.695-1.369,2.541-3.082,2.541-5.139c0-2.512-0.941-4.508-2.822-5.994
			c-1.883-1.486-4.178-2.607-6.889-3.371c-2.711-0.76-5.42-1.596-8.131-2.51c-2.709-0.914-5.008-2.438-6.889-4.568
			s-2.822-4.949-2.822-8.451c0-4.254,1.525-7.931,4.574-11.03c3.049-3.098,7.695-4.647,13.945-4.647
			c3.99,0,7.641,0.604,10.953,1.809s4.969,2.574,4.969,4.107c0,0.903-0.357,1.918-1.072,3.045c-0.717,1.127-1.602,1.69-2.654,1.69
			c-0.301,0-1.75-0.55-4.348-1.655c-2.598-1.105-5.176-1.657-7.734-1.657c-3.465,0-6.041,0.819-7.736,2.456
			c-1.693,1.638-2.541,3.483-2.541,5.539c0,2.132,0.941,3.808,2.824,5.024c1.881,1.219,4.195,2.172,6.945,2.855
			c2.746,0.686,5.477,1.523,8.186,2.514c2.711,0.988,5.006,2.684,6.889,5.08c1.881,2.4,2.824,5.502,2.824,9.309
			c0,4.623-1.658,8.277-4.969,10.963c-3.314,2.686-7.943,4.027-13.891,4.027c-5.119,0-9.484-0.922-13.1-2.768
			C517.468,91.188,515.661,89.249,515.661,87.218z"/>
		<path fill="#ffffff" d="M566.138,91.509v-79.16c0-0.978,0.434-1.768,1.299-2.371c0.865-0.602,1.977-0.903,3.332-0.903
			s2.484,0.301,3.387,0.903c0.904,0.604,1.355,1.394,1.355,2.371v52.847l25.746-23.261c0.678-0.526,1.355-0.791,2.033-0.791
			c1.129,0,2.201,0.452,3.219,1.355c1.016,0.904,1.523,1.92,1.523,3.049c0,0.903-0.338,1.657-1.016,2.258l-15.697,13.889
			l18.746,27.215c0.375,0.604,0.564,1.168,0.564,1.693c0,1.129-0.564,2.203-1.693,3.219s-2.297,1.525-3.502,1.525
			c-1.055,0-1.918-0.49-2.596-1.469l-17.955-26.311l-9.373,8.355v15.584c0,0.828-0.471,1.6-1.412,2.314
			c-0.941,0.717-2.051,1.072-3.33,1.072c-1.281,0-2.371-0.338-3.275-1.016C566.591,93.202,566.138,92.411,566.138,91.509z"/>
		<path fill="#ffffff" d="M622.091,25.053c-1.168-1.09-1.75-2.352-1.75-3.783c0-1.429,0.564-2.671,1.693-3.726
			c1.129-1.054,2.521-1.581,4.178-1.581c1.582,0,2.938,0.527,4.066,1.581c1.129,1.055,1.693,2.297,1.693,3.726
			c0,1.431-0.564,2.693-1.693,3.783c-1.129,1.092-2.484,1.637-4.066,1.637C624.632,26.69,623.257,26.146,622.091,25.053z
			 M621.583,91.509V44.645c0-0.977,0.451-1.768,1.355-2.371c0.902-0.602,1.994-0.903,3.273-0.903c1.355,0,2.484,0.302,3.389,0.903
			c0.902,0.604,1.355,1.394,1.355,2.371v46.864c0,0.828-0.471,1.6-1.412,2.314c-0.941,0.717-2.053,1.072-3.332,1.072
			s-2.371-0.338-3.273-1.016C622.034,93.202,621.583,92.411,621.583,91.509z"/>
	</g>
</g>
</svg>
