<?xml version="1.0" encoding="utf-8"?>
<!-- Generator: Adobe Illustrator 16.0.0, SVG Export Plug-In . SVG Version: 6.00 Build 0)  -->
<!DOCTYPE svg PUBLIC "-//W3C//DTD SVG 1.1//EN" "http://www.w3.org/Graphics/SVG/1.1/DTD/svg11.dtd">
<svg version="1.1" id="Layer_2" xmlns="http://www.w3.org/2000/svg" xmlns:xlink="http://www.w3.org/1999/xlink" x="0px" y="0px"
	 width="71.337px" height="69.564px" viewBox="0 0 71.337 69.564" enable-background="new 0 0 71.337 69.564" xml:space="preserve">
<g>
	<path fill="#27D851" d="M71.337,9.554c0,5.277-4.277,9.554-9.555,9.554H9.554C4.277,19.108,0,14.831,0,9.554l0,0
		C0,4.277,4.277,0,9.554,0h52.229C67.06,0,71.337,4.277,71.337,9.554L71.337,9.554z"/>
	<path fill="#27D851" d="M71.337,34.782c0,5.277-4.277,9.555-9.555,9.555H9.554C4.277,44.336,0,40.059,0,34.782l0,0
		c0-5.276,4.277-9.554,9.554-9.554h52.229C67.06,25.228,71.337,29.505,71.337,34.782L71.337,34.782z"/>
	<path fill="#27D851" d="M71.337,60.01c0,5.277-4.277,9.554-9.555,9.554H9.554C4.277,69.564,0,65.287,0,60.01l0,0
		c0-5.277,4.277-9.554,9.554-9.554h52.229C67.06,50.456,71.337,54.733,71.337,60.01L71.337,60.01z"/>
</g>
</svg>
