<?xml version="1.0" encoding="utf-8"?>
<!-- Generator: Adobe Illustrator 16.0.0, SVG Export Plug-In . SVG Version: 6.00 Build 0)  -->
<!DOCTYPE svg PUBLIC "-//W3C//DTD SVG 1.1//EN" "http://www.w3.org/Graphics/SVG/1.1/DTD/svg11.dtd">
<svg version="1.1" id="Layer_2" xmlns="http://www.w3.org/2000/svg" xmlns:xlink="http://www.w3.org/1999/xlink" x="0px" y="0px"
	 width="71.67px" height="69.492px" viewBox="0 0 71.67 69.492" enable-background="new 0 0 71.67 69.492" xml:space="preserve">
<g>
	<path fill="#28d851" d="M16.862,66.63l22.442-21.983l29.472-28.833c3.77-3.687,3.68-9.58-0.2-13.164
		c-3.88-3.584-10.08-3.501-13.85,0.188L39.785,17.456L2.831,53.535c-3.771,3.687-3.548,9.745,0.333,13.328
		C7.044,70.447,13.092,70.32,16.862,66.63z"/>
	<path fill="#28d851" d="M2.936,16.286l22.683,21.835l29.75,28.676c3.805,3.667,9.886,3.58,13.584-0.195
		c3.697-3.775,3.613-9.807-0.194-13.475L53.676,38.589L16.447,2.634C12.644-1.036,6.391-0.818,2.695,2.958
		C-1.002,6.733-0.871,12.617,2.936,16.286z"/>
</g>
</svg>
