<?xml version="1.0" encoding="utf-8"?>
<!-- Generator: Adobe Illustrator 16.0.0, SVG Export Plug-In . SVG Version: 6.00 Build 0)  -->
<!DOCTYPE svg PUBLIC "-//W3C//DTD SVG 1.1//EN" "http://www.w3.org/Graphics/SVG/1.1/DTD/svg11.dtd">
<svg version="1.1" id="reka_1" xmlns="http://www.w3.org/2000/svg" xmlns:xlink="http://www.w3.org/1999/xlink" x="0px" y="0px"
	 width="454.999px" height="362.5px" viewBox="0 0 454.999 362.5" enable-background="new 0 0 454.999 362.5" xml:space="preserve">
<g id="miasto_1_">
	<defs>
		<rect id="SVGID_1_" x="-0.125" width="453.125" height="362.5"/>
	</defs>
	<clipPath id="SVGID_2_">
		<use xlink:href="#SVGID_1_"  overflow="visible"/>
	</clipPath>
	<g id="miasto" clip-path="url(#SVGID_2_)">
		<linearGradient id="SVGID_3_" gradientUnits="userSpaceOnUse" x1="372.7129" y1="332.9238" x2="372.7129" y2="139.2939">
			<stop  offset="0.2018" style="stop-color:#2AD84F;stop-opacity:0.5"/>
			<stop  offset="1" style="stop-color:#2AD84F;stop-opacity:0.5"/>
		</linearGradient>
		<polygon fill="url(#SVGID_3_)" points="366.649,133.462 378.318,132.494 378.777,346.907 370.624,341.199 371.035,200.976 
			368.997,198.938 		"/>
		<linearGradient id="SVGID_4_" gradientUnits="userSpaceOnUse" x1="365.4277" y1="196.6064" x2="365.4277" y2="156.5738">
			<stop  offset="0.2018" style="stop-color:#2AD84F;stop-opacity:0.5"/>
			<stop  offset="1" style="stop-color:#2AD84F;stop-opacity:0.5"/>
		</linearGradient>
		<polygon fill="url(#SVGID_4_)" points="362.676,166.021 366.955,155.168 368.179,199.498 362.828,197.815 		"/>
		<linearGradient id="SVGID_5_" gradientUnits="userSpaceOnUse" x1="276.1821" y1="165.144" x2="276.1821" y2="68.3293">
			<stop  offset="0.2018" style="stop-color:#2AD84F;stop-opacity:0.5"/>
			<stop  offset="1" style="stop-color:#2AD84F;stop-opacity:0.5"/>
		</linearGradient>
		<polygon fill="url(#SVGID_5_)" points="270.348,65.897 282.017,64.929 281.965,172.136 272.106,169.996 		"/>
		<linearGradient id="SVGID_6_" gradientUnits="userSpaceOnUse" x1="226.0181" y1="261.127" x2="226.0181" y2="142.9618">
			<stop  offset="0.2018" style="stop-color:#2AD84F;stop-opacity:0.5"/>
			<stop  offset="1" style="stop-color:#2AD84F;stop-opacity:0.5"/>
		</linearGradient>
		<polygon fill="url(#SVGID_6_)" points="219.904,141.411 231.521,138.812 232.133,269.253 227.648,269.661 220.21,263.343 		"/>
		<linearGradient id="SVGID_7_" gradientUnits="userSpaceOnUse" x1="357.9883" y1="332.0273" x2="357.9883" y2="205.0273">
			<stop  offset="0.2018" style="stop-color:#2AD84F;stop-opacity:0.5"/>
			<stop  offset="1" style="stop-color:#2AD84F;stop-opacity:0.5"/>
		</linearGradient>
		<polygon fill="url(#SVGID_7_)" points="345.353,208.72 369.81,200.567 370.624,341.199 345.353,323.671 		"/>
		<linearGradient id="SVGID_8_" gradientUnits="userSpaceOnUse" x1="199.4204" y1="246.9243" x2="199.4204" y2="177.6267">
			<stop  offset="0.2018" style="stop-color:#2AD84F;stop-opacity:0.5"/>
			<stop  offset="1" style="stop-color:#2AD84F;stop-opacity:0.5"/>
		</linearGradient>
		<polygon fill="url(#SVGID_8_)" points="190.963,186.402 207.37,175.193 208.287,251.929 190.555,236.643 		"/>
		<linearGradient id="SVGID_9_" gradientUnits="userSpaceOnUse" x1="445.7744" y1="361.9565" x2="445.7744" y2="185.9594">
			<stop  offset="0.2018" style="stop-color:#2AD84F;stop-opacity:0.5"/>
			<stop  offset="1" style="stop-color:#2AD84F;stop-opacity:0.5"/>
		</linearGradient>
		<polygon fill="url(#SVGID_9_)" points="437.883,184.211 452.1,179.778 453.666,374.667 438.333,367.333 		"/>
		<linearGradient id="SVGID_10_" gradientUnits="userSpaceOnUse" x1="275.7495" y1="292.4238" x2="275.7495" y2="180.0559">
			<stop  offset="0.2018" style="stop-color:#2AD84F;stop-opacity:0.5"/>
			<stop  offset="1" style="stop-color:#2AD84F;stop-opacity:0.5"/>
		</linearGradient>
		<polygon fill="url(#SVGID_10_)" points="254.859,185.077 296.438,176.109 296.641,195.065 292.359,197.815 291.953,295.137 
			284.717,300.539 273.1,292.589 262.093,288.921 254.859,284.131 		"/>
		<linearGradient id="SVGID_11_" gradientUnits="userSpaceOnUse" x1="167.6255" y1="102.6465" x2="167.6255" y2="57.0946">
			<stop  offset="0.2018" style="stop-color:#2AD84F;stop-opacity:0.5"/>
			<stop  offset="1" style="stop-color:#2AD84F;stop-opacity:0.5"/>
		</linearGradient>
		<polygon fill="url(#SVGID_11_)" points="161.817,68.802 170.683,56.573 173.434,124.137 168.849,125.972 165.18,124.29 
			163.957,123.373 		"/>
		
			<linearGradient id="SVGID_12_" gradientUnits="userSpaceOnUse" x1="131.709" y1="808.1084" x2="139.2204" y2="806.5621" gradientTransform="matrix(0.9919 0.1268 -0.1268 0.9919 81.5669 -724.5049)">
			<stop  offset="0.2018" style="stop-color:#2AD84F;stop-opacity:0.5"/>
			<stop  offset="1" style="stop-color:#2AD84F;stop-opacity:0.5"/>
		</linearGradient>
		<polygon fill="url(#SVGID_12_)" points="113.207,66.05 117.385,61.668 113.334,121.418 113.105,125.054 103.73,125.666 
			103.118,122.303 		"/>
		<linearGradient id="SVGID_13_" gradientUnits="userSpaceOnUse" x1="149.0933" y1="231.0156" x2="150.2789" y2="134.9468">
			<stop  offset="0.2018" style="stop-color:#2AD84F;stop-opacity:0.5"/>
			<stop  offset="1" style="stop-color:#2AD84F;stop-opacity:0.5"/>
		</linearGradient>
		<polygon fill="url(#SVGID_13_)" points="139.499,133.309 161.104,132.902 158.25,221.764 155.396,231.14 148.874,232.363 
			147.652,206.275 147.754,175.499 144.085,148.289 		"/>
		<linearGradient id="SVGID_14_" gradientUnits="userSpaceOnUse" x1="120.1221" y1="187.0005" x2="127.6586" y2="134.985">
			<stop  offset="0.2018" style="stop-color:#2AD84F;stop-opacity:0.5"/>
			<stop  offset="1" style="stop-color:#2AD84F;stop-opacity:0.5"/>
		</linearGradient>
		<polygon fill="url(#SVGID_14_)" points="138.684,133.105 140.518,133.513 140.314,137.385 136.238,138.2 125,209.667 
			120.333,180.667 113.333,177.667 114.837,133.717 		"/>
		<linearGradient id="SVGID_15_" gradientUnits="userSpaceOnUse" x1="109.0918" y1="173.5073" x2="109.4295" y2="146.1479">
			<stop  offset="0.2018" style="stop-color:#2AD84F;stop-opacity:0.5"/>
			<stop  offset="1" style="stop-color:#2AD84F;stop-opacity:0.5"/>
		</linearGradient>
		<polygon fill="url(#SVGID_15_)" points="114.838,142.888 112.596,173.256 103.628,181.206 104.239,149.207 114.022,141.869 		"/>
		<linearGradient id="SVGID_16_" gradientUnits="userSpaceOnUse" x1="131.6611" y1="100.3965" x2="152.6388" y2="105.0128">
			<stop  offset="0.2018" style="stop-color:#2AD84F;stop-opacity:0.5"/>
			<stop  offset="1" style="stop-color:#2AD84F;stop-opacity:0.5"/>
		</linearGradient>
		<polygon fill="url(#SVGID_16_)" points="163.142,132.494 160.493,69.719 151.32,109.667 114.837,133.717 		"/>
		<g>
			<path fill="none" stroke="#2AD84F" stroke-width="5" stroke-miterlimit="10" d="M-27.125,336.664l24.409-34.851
				c0,0,8.346-2.601,16.754-3.416c0,0,33.361-21.196,57.229-47.692l10.036-5.299l30.988-22.674"/>
			<path fill="none" stroke="#2AD84F" stroke-width="5" stroke-miterlimit="10" d="M127.271,217.281l6.93,2.853
				c0,0,1.631,0.815,5.707-0.407l7.847-4.79"/>
			<polyline fill="none" stroke="#2AD84F" stroke-width="5" stroke-miterlimit="10" points="159.524,214.019 166.25,215.318 
				226.733,269.126 232.847,269.441 258.526,287.391 267.494,289.91 285.43,300.616 293.174,293.688 303.366,295.263 
				420.763,373.81 443.588,368.104 469.678,395.414 			"/>
			<polyline fill="none" stroke="#2AD84F" stroke-width="5" stroke-miterlimit="10" points="148.365,228.235 134.802,247.7 
				121.045,263.292 107.288,277.048 102.202,288.921 			"/>
			<polyline fill="none" stroke="#2AD84F" stroke-width="5" stroke-miterlimit="10" points="102.354,288.462 100.869,293.556 
				95.366,328.406 91.697,352.252 			"/>
			<path fill="none" stroke="#2AD84F" stroke-width="5" stroke-miterlimit="10" d="M161.053,133.615l-0.306,49.985l-3.516,30.572
				h1.834l0.917,4.586l-4.586,12.076c-5.656,4.433-6.521,0.306-6.521,0.306s-2.446-47.285-1.63-50.546
				c0.815-3.261-0.51-33.629-7.44-44.228l-3.668,1.07l-7.234,35.005c0,0-3.669,45.247-2.445,56.66c0,0-4.077,4.076-6.93,2.038
				s-6.472-9.172-6.472-9.172l0.306-56.252l1.987-31.489"/>
			<polyline fill="none" stroke="#2AD84F" stroke-width="5" stroke-miterlimit="10" points="164.568,133.309 113.207,133.462 
				115.347,112.52 116.111,100.393 118.558,61.719 			"/>
			<path fill="none" stroke="#2AD84F" stroke-width="5" stroke-miterlimit="10" d="M116.265,98.762l-2.242,26.802l-11.618-0.204
				c0.459-14.521,3.312-39.285,3.312-39.285c1.988-10.242,5.503-33.935,5.503-33.935c1.223-6.114,5.962-6.726,5.962-6.726
				c10.853-0.154,16.814-7.949,16.814-7.949l0.917-2.14l14.522-0.153c0,0,7.643,9.783,15.286,10.242c0,0,5.42,1.217,5.962,9.477
				l3.363,46.011l-0.509,24.254c0,0-6.726,2.802-10.394-0.408l-2.446-55.845l2.853,64.201"/>
			<path fill="none" stroke="#2AD84F" stroke-width="5" stroke-miterlimit="10" d="M136.85,34.867c0,0-3.261-7.746-3.873-8.561
				c-0.611-0.814-3.667-7.744-4.075-13.655c0,0-1.019-6.319,8.56-8.357c0,0,10.395-3.057,13.248,0.815c0,0,3.668,8.153,3.668,15.083
				c0,0-0.611,12.026-0.611,13.656c0,1.63-4.331,1.325-4.331,1.325"/>
			<path fill="none" stroke="#2AD84F" stroke-width="5" stroke-miterlimit="10" d="M170.683,126.175c0,0,1.02,7.134-1.223,9.172
				c0,0-4.28,2.649-7.542,2.038"/>
			<path fill="none" stroke="#2AD84F" stroke-width="5" stroke-miterlimit="10" d="M104.031,126.787c0,0-0.894,7.541,7.512,8.152
				l2.683,0.408"/>
			<g>
				<polyline fill="none" stroke="#2AD84F" stroke-width="5" stroke-miterlimit="10" points="112.826,134.767 94.673,146.924 
					94.049,180.187 104.647,181.409 113.004,172.034 				"/>
				<polyline fill="none" stroke="#2AD84F" stroke-width="5" stroke-miterlimit="10" points="104.036,181.613 104.852,149.41 
					94.252,147.78 				"/>
				
					<line fill="none" stroke="#2AD84F" stroke-width="5" stroke-miterlimit="10" x1="104.852" y1="149.41" x2="114.226" y2="142.277"/>
			</g>
			<polyline fill="none" stroke="#2AD84F" stroke-width="5" stroke-miterlimit="10" points="285.43,300.616 272.794,317.964 
				264.233,347.313 247.113,358.32 			"/>
			<g>
				<g>
					<polyline fill="none" stroke="#2AD84F" stroke-width="5" stroke-miterlimit="10" points="231.828,270.069 231.828,178.761 
						274.832,170.097 296.641,175.907 296.641,195.065 					"/>
					<polyline fill="none" stroke="#2AD84F" stroke-width="5" stroke-miterlimit="10" points="291.953,295.137 291.75,196.696 
						319.264,189.409 371.898,200.058 					"/>
					<polyline fill="none" stroke="#2AD84F" stroke-width="5" stroke-miterlimit="10" points="254.859,284.131 254.859,185.077 
						296.182,176.67 					"/>
					
						<line fill="none" stroke="#2AD84F" stroke-width="5" stroke-miterlimit="10" x1="254.859" y1="185.077" x2="231.828" y2="178.761"/>
					
						<line fill="none" stroke="#2AD84F" stroke-width="5" stroke-miterlimit="10" x1="345.479" y1="207.905" x2="345.758" y2="323.264"/>
					
						<line fill="none" stroke="#2AD84F" stroke-width="5" stroke-miterlimit="10" x1="370.829" y1="198.529" x2="371.031" y2="340.792"/>
					<polyline fill="none" stroke="#2AD84F" stroke-width="5" stroke-miterlimit="10" points="371.033,199.956 345.632,208.21 
						291.545,197.104 					"/>
				</g>
				<polyline fill="none" stroke="#2AD84F" stroke-width="5" stroke-miterlimit="10" points="245.279,175.805 245.279,64.828 
					270.959,64.828 272.106,169.996 				"/>
				<polyline fill="none" stroke="#2AD84F" stroke-width="5" stroke-miterlimit="10" points="220.006,262.324 219.598,141.666 
					231.521,138.812 218.579,115.373 217.56,115.169 206.656,137.385 219.497,141.257 218.782,132.188 217.968,115.781 				"/>
				
					<line fill="none" stroke="#2AD84F" stroke-width="5" stroke-miterlimit="10" x1="232.234" y1="139.22" x2="232.234" y2="177.741"/>
				
					<line fill="none" stroke="#2AD84F" stroke-width="5" stroke-miterlimit="10" x1="206.351" y1="138.608" x2="206.351" y2="175.703"/>
				<polyline fill="none" stroke="#2AD84F" stroke-width="5" stroke-miterlimit="10" points="161.919,178.352 207.166,175.703 
					207.981,251.114 				"/>
				<polyline fill="none" stroke="#2AD84F" stroke-width="5" stroke-miterlimit="10" points="206.351,175.703 190.658,186.3 
					161.715,187.727 				"/>
				
					<line fill="none" stroke="#2AD84F" stroke-width="5" stroke-miterlimit="10" x1="190.454" y1="187.523" x2="190.86" y2="236.439"/>
				<polyline fill="none" stroke="#2AD84F" stroke-width="5" stroke-miterlimit="10" points="336.181,192.007 336.588,164.9 
					341.275,154.302 341.479,133.309 366.345,133.513 				"/>
				<polyline fill="none" stroke="#2AD84F" stroke-width="5" stroke-miterlimit="10" points="341.275,154.302 365.53,155.524 
					362.677,165.512 362.677,197.51 				"/>
				
					<line fill="none" stroke="#2AD84F" stroke-width="5" stroke-miterlimit="10" x1="337.608" y1="164.289" x2="363.694" y2="165.512"/>
				<polyline fill="none" stroke="#2AD84F" stroke-width="5" stroke-miterlimit="10" points="368.18,198.529 367.16,133.513 
					377.759,133.105 378.777,346.907 				"/>
				<polyline fill="none" stroke="#2AD84F" stroke-width="5" stroke-miterlimit="10" points="271.164,65.031 281.762,64.624 
					281.965,172.136 				"/>
				<polyline fill="none" stroke="#2AD84F" stroke-width="5" stroke-miterlimit="10" points="379.185,185.281 399.362,189.562 
					399.159,176.721 				"/>
				<polyline fill="none" stroke="#2AD84F" stroke-width="5" stroke-miterlimit="10" points="398.667,179 413.731,174.887 
					451.641,180.39 453.475,379.729 				"/>
				<path fill="none" stroke="#2AD84F" stroke-width="5" stroke-miterlimit="10" d="M433.094,346.295"/>
				<polyline fill="none" stroke="#2AD84F" stroke-width="5" stroke-miterlimit="10" points="400.381,181.001 393.35,181.206 
					379.592,184.263 				"/>
				<polyline fill="none" stroke="#2AD84F" stroke-width="5" stroke-miterlimit="10" points="450.724,181.001 437.883,184.67 
					437.066,369.325 				"/>
				
					<line fill="none" stroke="#2AD84F" stroke-width="5" stroke-miterlimit="10" x1="437.883" y1="184.67" x2="399.362" y2="178.861"/>
			</g>
		</g>
	</g>
</g>
</svg>
