<?xml version="1.0" encoding="utf-8"?>
<!-- Generator: Adobe Illustrator 16.0.0, SVG Export Plug-In . SVG Version: 6.00 Build 0)  -->
<!DOCTYPE svg PUBLIC "-//W3C//DTD SVG 1.1//EN" "http://www.w3.org/Graphics/SVG/1.1/DTD/svg11.dtd">
<svg version="1.1" id="reka_1" xmlns="http://www.w3.org/2000/svg" xmlns:xlink="http://www.w3.org/1999/xlink" x="0px" y="0px"
	 width="100% height="auto" viewBox="0 0 454.999 362.5" enable-background="new 0 0 454.999 362.5" xml:space="preserve">
<g id="reka_1_2_">
	<defs>
		<rect id="SVGID_1_" x="-0.125" width="453.125" height="362.5"/>
	</defs>
	<clipPath id="SVGID_2_">
		<use xlink:href="#SVGID_1_"  overflow="visible"/>
	</clipPath>
	<g id="reka_1_1_" clip-path="url(#SVGID_2_)">
		<linearGradient id="SVGID_3_" gradientUnits="userSpaceOnUse" x1="98.2515" y1="158.6479" x2="133.9653" y2="158.6479">
			<stop  offset="0.2018" style="stop-color:#2AD84F;stop-opacity:0.5"/>
			<stop  offset="1" style="stop-color:#2AD84F;stop-opacity:0.5"/>
		</linearGradient>
		<path fill="url(#SVGID_3_)" d="M108.561,123.67c0,0,10.308,12.519,17.304,7.732l8.101,62.224l-16.937-14.728l-12.518-15.095
			l-6.259-6.259C98.251,157.543,108.561,153.861,108.561,123.67z"/>
		<linearGradient id="SVGID_4_" gradientUnits="userSpaceOnUse" x1="153.479" y1="156.623" x2="191.0337" y2="156.623">
			<stop  offset="0.2018" style="stop-color:#2AD84F;stop-opacity:0.5"/>
			<stop  offset="1" style="stop-color:#2AD84F;stop-opacity:0.5"/>
		</linearGradient>
		<path fill="url(#SVGID_4_)" d="M153.479,122.934c0,0,6.996,20.987,37.555,29.455v2.577l-31.295,35.346L153.479,122.934z"/>
		<linearGradient id="SVGID_5_" gradientUnits="userSpaceOnUse" x1="151.27" y1="220.5029" x2="255.5586" y2="220.5029">
			<stop  offset="0.2018" style="stop-color:#2AD84F;stop-opacity:0.5"/>
			<stop  offset="1" style="stop-color:#2AD84F;stop-opacity:0.5"/>
		</linearGradient>
		<path fill="url(#SVGID_5_)" d="M151.27,238.175c0,0,46.391,15.097,104.289-49.152l-7.732,14.083c0,0-18.225,25.405-44.458,37.831
			l-22.643,10.217l-7.18,0.829l-9.388-1.658l-9.113-8.56L151.27,238.175z"/>
		<linearGradient id="SVGID_6_" gradientUnits="userSpaceOnUse" x1="135.4375" y1="109.2188" x2="159.7383" y2="109.2188">
			<stop  offset="0.2018" style="stop-color:#2AD84F;stop-opacity:0.5"/>
			<stop  offset="1" style="stop-color:#2AD84F;stop-opacity:0.5"/>
		</linearGradient>
		<polygon fill="url(#SVGID_6_)" points="135.438,19.474 154.216,198.964 159.738,190.312 142.065,21.131 		"/>
		<linearGradient id="SVGID_7_" gradientUnits="userSpaceOnUse" x1="141.4209" y1="266.7554" x2="170.7837" y2="266.7554">
			<stop  offset="0.2018" style="stop-color:#2AD84F;stop-opacity:0.5"/>
			<stop  offset="1" style="stop-color:#2AD84F;stop-opacity:0.5"/>
		</linearGradient>
		<polygon fill="url(#SVGID_7_)" points="151.73,246.459 141.421,268.459 156.332,255.33 157.666,266.663 161.666,295.33 
			170.784,298.649 167.194,250.602 157.529,244.526 151.455,235.966 150.073,234.861 		"/>
		<linearGradient id="SVGID_8_" gradientUnits="userSpaceOnUse" x1="167.1938" y1="265.2373" x2="303.3301" y2="265.2373">
			<stop  offset="0.2018" style="stop-color:#2AD84F;stop-opacity:0.5"/>
			<stop  offset="1" style="stop-color:#2AD84F;stop-opacity:0.5"/>
		</linearGradient>
		<path fill="url(#SVGID_8_)" d="M234.296,219.398c0,0,21.263,26.509,43.077,32.031c0,0-12.978,3.59-3.589,14.359
			c3.707,4.252,4.163,4.111,14.082,11.783l15.464,8.652c0,0-16.567,14.911-58.541,24.853c0,0-9.39-17.673-19.33-16.568
			c0,0-6.628-16.568-22.644-11.046c0,0-22.09-19.329-34.793-19.329l-0.828-13.531C167.194,250.602,184.591,260.819,234.296,219.398z
			"/>
		<linearGradient id="SVGID_9_" gradientUnits="userSpaceOnUse" x1="168.022" y1="293.5146" x2="210.1792" y2="293.5146">
			<stop  offset="0.2018" style="stop-color:#2AD84F;stop-opacity:0.5"/>
			<stop  offset="1" style="stop-color:#2AD84F;stop-opacity:0.5"/>
		</linearGradient>
		<path fill="url(#SVGID_9_)" d="M168.022,264.133c0,0,21.908,5.707,33.321,20.066c0,0,8.468,11.046,8.836,23.564
			c0,0-9.757-18.961-27.982-22.091c-3.498,2.577-4.88,38.554-8.468,37.187c-3.248-1.239-1.303-49.195-5.154-49.705L168.022,264.133z
			"/>
		<linearGradient id="SVGID_10_" gradientUnits="userSpaceOnUse" x1="202.8154" y1="292.2998" x2="228.2212" y2="292.2998">
			<stop  offset="0.2018" style="stop-color:#2AD84F;stop-opacity:0.5"/>
			<stop  offset="1" style="stop-color:#2AD84F;stop-opacity:0.5"/>
		</linearGradient>
		<path fill="url(#SVGID_10_)" d="M202.815,283.462l4.787,9.941c0,0,9.941-7.731,20.619,8.837l-8.469-15.833l-9.204-4.049
			L202.815,283.462z"/>
		<linearGradient id="SVGID_11_" gradientUnits="userSpaceOnUse" x1="170.7837" y1="314.3896" x2="245.3413" y2="314.3896">
			<stop  offset="0.2018" style="stop-color:#2AD84F;stop-opacity:0.5"/>
			<stop  offset="1" style="stop-color:#2AD84F;stop-opacity:0.5"/>
		</linearGradient>
		<path fill="url(#SVGID_11_)" d="M171.888,321.569l-1.104,12.702l62.96-6.075l8.836-3.866l2.761-6.627l-0.552-6.627l-6.076-11.045
			l-7.731-4.971l-5.522-0.552c0,0,10.492,19.882,0,23.748c0,0-9.389,4.971-19.33,4.418l-6.627,4.418l-7.732-2.209L171.888,321.569z"
			/>
		<linearGradient id="SVGID_12_" gradientUnits="userSpaceOnUse" x1="234.2959" y1="222.9878" x2="250.0356" y2="222.9878">
			<stop  offset="0.2018" style="stop-color:#2AD84F;stop-opacity:0.5"/>
			<stop  offset="1" style="stop-color:#2AD84F;stop-opacity:0.5"/>
		</linearGradient>
		<path fill="url(#SVGID_12_)" d="M249.822,210.052c0,0-15.526,9.346,0.213,26.19l-15.74-16.844l3.589-4.971l4.418-3.589
			l4.142-1.105L249.822,210.052z"/>
		<linearGradient id="SVGID_13_" gradientUnits="userSpaceOnUse" x1="242.3037" y1="201.8633" x2="253.9009" y2="201.8633">
			<stop  offset="0.2018" style="stop-color:#2AD84F;stop-opacity:0.5"/>
			<stop  offset="1" style="stop-color:#2AD84F;stop-opacity:0.5"/>
		</linearGradient>
		<path fill="url(#SVGID_13_)" d="M253.901,192.889c0,0-7.178,14.083-2.208,17.396l-6.351,0.553l-3.038-1.105L253.901,192.889z"/>
		<g>
			<path fill="none" stroke="#2AD84F" stroke-width="5" stroke-miterlimit="10" d="M149.061,82.618c0,0,9.204,0.53,22.551,6.432
				c117.912,50.257,129.786,43.629,129.786,43.629C450.27,87.728,499.973,69.503,499.973,69.503"/>
			<path fill="none" stroke="#2AD84F" stroke-width="5" stroke-miterlimit="10" d="M150.211,235.69
				c3.314,24.023-14.221,35.611-14.221,35.611c-8.837,4.418-16.292-6.903-16.292-6.903c-6.351-10.77-19.33-22.644-19.33-22.644
				c-46.944-35.898-88.364-58.817-88.364-58.817c-11.045-7.456-7.455-20.71-7.455-20.71c1.38-12.426,9.665-21.815,9.665-21.815
				c24.852-26.509,46.943-35.345,46.943-35.345l50.809-17.121c2.352-1.054,6.45-2.736,8.745-3.487"/>
			<path fill="none" stroke="#2AD84F" stroke-width="5" stroke-miterlimit="10" d="M261.633,140.688
				c-8.56-3.865-14.083-4.833-14.083-4.833c-25.958-3.313-41.421,6.627-41.421,6.627c-12.564,8.561-20.435,17.812-20.435,17.812
				c-9.389,6.351-32.309,40.04-32.309,40.04c-8.283,10.77-6.074,26.509-6.074,26.509c0,9.113,12.426,19.606,12.426,19.606
				c11.321,9.664,25.128,3.589,25.128,3.589c40.593-17.396,58.542-40.316,58.542-40.316s6.903-8.008,12.702-21.262"/>
			<path fill="none" stroke="#2AD84F" stroke-width="5" stroke-miterlimit="10" d="M147.312,225.059c0,0-2.624-26.105-31.204-46.954
				c0,0-5.384-8.146-17.259-19.467c0,0-21.4-22.091-41.145-24.301"/>
			<path fill="none" stroke="#2AD84F" stroke-width="5" stroke-miterlimit="10" d="M104.234,163.607c0,0,6.259-0.552,7.87-26.924
				c0,0-0.322-13.761-9.895-18.915"/>
			<path fill="none" stroke="#2AD84F" stroke-width="5" stroke-miterlimit="10" d="M24.983,191.497c0,0-8.284,25.958-9.941,34.794
				c0,0-1.657,9.94-0.552,19.33c0,0,1.657,10.217,11.322,15.739c9.665,5.523,29.823,25.128,83.118,43.354
				c0,0,15.602,6.627,36.174,9.941"/>
			<path fill="none" stroke="#2AD84F" stroke-width="5" stroke-miterlimit="10" d="M172.349,322.479c0,0,17.672,4.418,27.061,4.234
				c0,0,9.941,0.183,11.046-13.071c0,0,2.577-18.226-11.598-33.137c0,0-10.677-12.151-30.928-17.305"/>
			<path fill="none" stroke="#2AD84F" stroke-width="5" stroke-miterlimit="10" d="M206.544,323.629c0,0,18.225,0.277,23.196-9.113
				c0,0,4.464-10.814-10.264-28.119c0,0-5.063-5.845-17.627-2.808"/>
			<path fill="none" stroke="#2AD84F" stroke-width="5" stroke-miterlimit="10" d="M34.923,268.264c0,0-5.798,24.208,7.088,32.676
				c0,0,27.246,16.937,56.332,23.564c0,0,20.987,6.121,50.073,7.41"/>
			<path fill="none" stroke="#2AD84F" stroke-width="5" stroke-miterlimit="10" d="M171.612,333.524c0,0,21.707,0.184,40.939-2.025
				c0,0,14.425-1.289,25.002-3.682c0,0,9.17-2.531,6.683-14.957c0,0-2.208-15.878-18.225-17.95"/>
			<path fill="none" stroke="#2AD84F" stroke-width="5" stroke-miterlimit="10" d="M234.434,220.078
				c0,0,32.906,45.517,82.611,34.103"/>
			<path fill="none" stroke="#2AD84F" stroke-width="5" stroke-miterlimit="10" d="M243.684,210.413c0,0,17.766,3.268,31.389-8.146"
				/>
			<path fill="none" stroke="#2AD84F" stroke-width="5" stroke-miterlimit="10" d="M192.599,153.39c0,0-29.086-20.342-30.56-35.07"
				/>
			<path fill="none" stroke="#2AD84F" stroke-width="5" stroke-miterlimit="10" d="M113.438,9.337c0,0,9.572-11.782,24.668-2.209
				l1.841,9.573c0,0-11.414-5.523-26.141,3.682L113.438,9.337z"/>
			<path fill="none" stroke="#2AD84F" stroke-width="5" stroke-miterlimit="10" d="M159.673,189.952L141.789,21.396
				c-13.254-7.456-28.442,2.209-28.442,2.209l20.434,170.757"/>
			<path fill="none" stroke="#2AD84F" stroke-width="5" stroke-miterlimit="10" d="M140.408,268.366l3.038,32.758
				c15.463-7.732,27.613-3.866,27.613-3.866l-4.326-46.379"/>
			<path fill="none" stroke="#2AD84F" stroke-width="5" stroke-miterlimit="10" d="M135.346,22.777l-13.439,0.92
				c0,0,0.368,28.535,9.021,88.733c0,0,0.92,5.201,3.13,9.021c0,0,4.004,5.293,7.317-0.369c0,0,1.243-1.656,1.38-9.388
				c0,0,0.691-23.011-6.489-88.364"/>
			<path fill="none" stroke="#2AD84F" stroke-width="5" stroke-miterlimit="10" d="M143.814,302.782c0,0,15.096-9.572,27.43-2.578
				c0,0,2.945,35.53-3.315,50.625c0,0-3.866,5.155-9.572,0.92C158.357,351.75,148.048,342.913,143.814,302.782z"/>
			<g>
				<path fill="#2AD84F" d="M163.312,346.01c0,0,0.364,0.794,0.822,1.992c0.223,0.6,0.488,1.298,0.736,2.05
					c0.272,0.75,0.488,1.556,0.728,2.36c0.119,0.402,0.276,0.801,0.442,1.193c0.17,0.392,0.317,0.778,0.36,1.161
					c0.076,0.766-0.152,1.506-0.422,2.146c-0.141,0.321-0.312,0.618-0.475,0.882c-0.172,0.266-0.342,0.499-0.51,0.692
					c-0.323,0.387-0.598,0.616-0.598,0.616l-0.498,0.041c0,0-0.309-0.18-0.691-0.509c-0.197-0.164-0.403-0.366-0.617-0.599
					c-0.204-0.234-0.421-0.5-0.613-0.792c-0.371-0.587-0.718-1.279-0.769-2.048c-0.021-0.384,0.061-0.79,0.164-1.204
					c0.099-0.414,0.188-0.833,0.24-1.25c0.105-0.833,0.185-1.663,0.33-2.448c0.121-0.783,0.267-1.516,0.389-2.144
					c0.255-1.257,0.483-2.1,0.483-2.1L163.312,346.01z"/>
			</g>
			<path fill="none" stroke="#2AD84F" stroke-width="5" stroke-miterlimit="10" d="M243.409,311.618c0,0,53.57-6.075,67.929-22.091
				l56.094-11.273c0,0,86.151-15.738,174.786-57.158"/>
		</g>
	</g>
</g>
</svg>
