<?xml version="1.0" encoding="utf-8"?>
<!-- Generator: Adobe Illustrator 16.0.0, SVG Export Plug-In . SVG Version: 6.00 Build 0)  -->
<!DOCTYPE svg PUBLIC "-//W3C//DTD SVG 1.1//EN" "http://www.w3.org/Graphics/SVG/1.1/DTD/svg11.dtd">
<svg version="1.1" id="reka_1" xmlns="http://www.w3.org/2000/svg" xmlns:xlink="http://www.w3.org/1999/xlink" x="0px" y="0px"
	 width="" height="" viewBox="0 0 454.999 362.5" enable-background="new 0 0 454.999 362.5" xml:space="preserve">
<g id="gosc_1_">
	<defs>
		<rect id="SVGID_1_" x="-0.125" width="453.125" height="362.5"/>
	</defs>
	<clipPath id="SVGID_2_">
		<use xlink:href="#SVGID_1_"  overflow="visible"/>
	</clipPath>
	<g id="gosc" clip-path="url(#SVGID_2_)">
		<linearGradient id="SVGID_3_" gradientUnits="userSpaceOnUse" x1="232.8892" y1="108.8232" x2="274.4038" y2="108.8232">
			<stop  offset="0.2018" style="stop-color:#2AD84F;stop-opacity:0.5"/>
			<stop  offset="1" style="stop-color:#2AD84F;stop-opacity:0.5"/>
		</linearGradient>
		<path fill="url(#SVGID_3_)" d="M232.889,115.906c0,0,21.126,2.069,34.309-22.538l6.173-9.85l1.033,16.333l-0.114,4.153
			c0,0-2.741,11.114-27.365,30.123L232.889,115.906z"/>
		<linearGradient id="SVGID_4_" gradientUnits="userSpaceOnUse" x1="259.7163" y1="40.5747" x2="281.0479" y2="40.5747">
			<stop  offset="0.2018" style="stop-color:#2AD84F;stop-opacity:0.5"/>
			<stop  offset="1" style="stop-color:#2AD84F;stop-opacity:0.5"/>
		</linearGradient>
		<path fill="url(#SVGID_4_)" d="M272.324,13.522l-12.607,15.496c0,0,8.143,6.041,2.364,14.708v3.677l4.728,3.152l2.364,17.072
			l2.626-1.313l6.304-9.718l2.89-1.051C280.991,55.545,282.304,24.29,272.324,13.522z"/>
		<linearGradient id="SVGID_5_" gradientUnits="userSpaceOnUse" x1="246.1362" y1="123.5723" x2="283.6138" y2="123.5723">
			<stop  offset="0.2018" style="stop-color:#2AD84F;stop-opacity:0.5"/>
			<stop  offset="1" style="stop-color:#2AD84F;stop-opacity:0.5"/>
		</linearGradient>
		<path fill="url(#SVGID_5_)" d="M253.474,136.492l11.492,10.193l16.021-24.426l2.627-8.405l-1.576-3.152l-1.576-0.788l-5.252-9.455
			c0,0-1.445,10.178-21.012,28.104l-8.061,5.811L253.474,136.492z"/>
		<linearGradient id="SVGID_6_" gradientUnits="userSpaceOnUse" x1="265.1953" y1="130.8066" x2="341.9209" y2="130.8066">
			<stop  offset="0.2018" style="stop-color:#2AD84F;stop-opacity:0.5"/>
			<stop  offset="1" style="stop-color:#2AD84F;stop-opacity:0.5"/>
		</linearGradient>
		<path fill="url(#SVGID_6_)" d="M280.461,108.175c0,0,3.841-4.038,17.926,15.759l0.295,1.576l43.238,23.343
			c0,0-7.879-0.69-14.379,4.924l-34.671-11.917l-27.676,4.136c0,0,15.168-20.88,18.32-30.533l-0.789-4.333l-1.378-1.083
			l-0.887-0.132V108.175z"/>
		<linearGradient id="SVGID_7_" gradientUnits="userSpaceOnUse" x1="327.542" y1="239.2607" x2="364.3203" y2="239.2607">
			<stop  offset="0.2018" style="stop-color:#2AD84F;stop-opacity:0.5"/>
			<stop  offset="1" style="stop-color:#2AD84F;stop-opacity:0.5"/>
		</linearGradient>
		<path fill="url(#SVGID_7_)" d="M341.135,148.787c0,0-7.093-0.395-13.593,4.99c10.698,7.257,23.363,12.368,9.768,154.136
			c-0.673,7.026-3.268,13.697-8.39,21.182c0,0,15.76,6.304,22.719-20.486c0,0,15.104-52.005,12.346-75.644l-3.152-62.248
			C360.832,170.718,359.652,150.495,341.135,148.787"/>
		<linearGradient id="SVGID_8_" gradientUnits="userSpaceOnUse" x1="217.9512" y1="341.5059" x2="327.7383" y2="341.5059">
			<stop  offset="0.2018" style="stop-color:#2AD84F;stop-opacity:0.5"/>
			<stop  offset="1" style="stop-color:#2AD84F;stop-opacity:0.5"/>
		</linearGradient>
		<polygon fill="url(#SVGID_8_)" points="306.989,327.125 327.213,328.964 327.738,358.644 314.343,359.826 305.676,343.278 
			233.185,329.227 217.951,323.186 		"/>
		<linearGradient id="SVGID_9_" gradientUnits="userSpaceOnUse" x1="220.4468" y1="150.2314" x2="230.0332" y2="150.2314">
			<stop  offset="0.2018" style="stop-color:#2AD84F;stop-opacity:0.5"/>
			<stop  offset="1" style="stop-color:#2AD84F;stop-opacity:0.5"/>
		</linearGradient>
		<polygon fill="url(#SVGID_9_)" points="220.447,155.747 230.033,151.02 228.063,144.716 		"/>
		<linearGradient id="SVGID_10_" gradientUnits="userSpaceOnUse" x1="240.5391" y1="153.5146" x2="255.1157" y2="153.5146">
			<stop  offset="0.2018" style="stop-color:#2AD84F;stop-opacity:0.5"/>
			<stop  offset="1" style="stop-color:#2AD84F;stop-opacity:0.5"/>
		</linearGradient>
		<path fill="url(#SVGID_10_)" d="M240.539,160.606c0,0,3.152-13.001,8.273-14.183l6.303,7.092
			C255.116,153.515,248.418,153.121,240.539,160.606z"/>
		<linearGradient id="SVGID_11_" gradientUnits="userSpaceOnUse" x1="210.3354" y1="205.437" x2="288.8335" y2="205.437">
			<stop  offset="0.2018" style="stop-color:#2AD84F;stop-opacity:0.5"/>
			<stop  offset="1" style="stop-color:#2AD84F;stop-opacity:0.5"/>
		</linearGradient>
		<path fill="url(#SVGID_11_)" d="M214.538,250.957l-4.202,7.617l1.477,0.394c0,0,22.653-30.993,77.021-100.068l-1.28-6.993
			L214.538,250.957z"/>
		<linearGradient id="SVGID_12_" gradientUnits="userSpaceOnUse" x1="281.9395" y1="144.8311" x2="295.2031" y2="144.8311">
			<stop  offset="0.2018" style="stop-color:#2AD84F;stop-opacity:0.5"/>
			<stop  offset="1" style="stop-color:#2AD84F;stop-opacity:0.5"/>
		</linearGradient>
		<polygon fill="url(#SVGID_12_)" points="281.939,145.963 291.264,143.337 292.871,141.86 295.203,142.68 293.89,145.438 
			287.586,147.277 282.728,147.802 		"/>
		<linearGradient id="SVGID_13_" gradientUnits="userSpaceOnUse" x1="183.3472" y1="286.4478" x2="218.6079" y2="286.4478">
			<stop  offset="0.2018" style="stop-color:#2AD84F;stop-opacity:0.5"/>
			<stop  offset="1" style="stop-color:#2AD84F;stop-opacity:0.5"/>
		</linearGradient>
		<polygon fill="url(#SVGID_13_)" points="183.347,274.53 187.877,282.606 195.363,289.895 203.046,293.047 218.608,298.366 
			218.214,291.274 209.152,287.531 198.121,284.97 		"/>
		<linearGradient id="SVGID_14_" gradientUnits="userSpaceOnUse" x1="153.6025" y1="282.2134" x2="153.6025" y2="282.2134">
			<stop  offset="0.2018" style="stop-color:#2AD84F;stop-opacity:0.5"/>
			<stop  offset="1" style="stop-color:#2AD84F;stop-opacity:0.5"/>
		</linearGradient>
		<path fill="url(#SVGID_14_)" d="M153.603,282.213"/>
		<linearGradient id="SVGID_15_" gradientUnits="userSpaceOnUse" x1="129.9639" y1="310.251" x2="183.2817" y2="310.251">
			<stop  offset="0.2018" style="stop-color:#2AD84F;stop-opacity:0.5"/>
			<stop  offset="1" style="stop-color:#2AD84F;stop-opacity:0.5"/>
		</linearGradient>
		<path fill="url(#SVGID_15_)" d="M154.39,281.162c0,0,19.961,10.9,28.235,8.143l0.657,0.131l-0.263,25.477l-14.051,8.143
			l-18.254,16.284l0.262-6.566l-3.283-0.657l-3.677-2.364c0,0-7.091-8.273-11.293-19.961l-2.758-7.354c0,0,5.778,7.486,23.77-21.143
			L154.39,281.162z"/>
		<linearGradient id="SVGID_16_" gradientUnits="userSpaceOnUse" x1="120.5088" y1="266.5854" x2="183.3472" y2="266.5854">
			<stop  offset="0.2018" style="stop-color:#2AD84F;stop-opacity:0.5"/>
			<stop  offset="1" style="stop-color:#2AD84F;stop-opacity:0.5"/>
		</linearGradient>
		<polygon fill="url(#SVGID_16_)" points="177.503,266.979 183.347,274.53 183.282,287.203 181.181,290.093 169.361,287.63 
			154.292,280.932 154.653,275.384 120.509,243.078 142.834,258.837 151.764,251.483 149.925,260.413 152.552,261.727 
			155.704,260.938 157.805,265.403 160.957,266.716 163.058,269.343 168.573,270.131 174.614,268.292 		"/>
		<g>
			
				<line fill="none" stroke="#2AD84F" stroke-width="5" stroke-miterlimit="10" x1="327.212" y1="329.752" x2="328.262" y2="359.957"/>
			<path fill="none" stroke="#2AD84F" stroke-width="5" stroke-miterlimit="10" d="M301.736,268.292
				c-2.495-43.6,2.889-79.583,10.242-94.686c7.355-15.102,20.281-26.696,30.731-24.557c16.677,3.414,17.86,20.88,17.86,20.88
				c7.091,63.036,3.148,88.119-2.366,115.697c-5.516,27.578-12.082,34.669-15.759,40.186c-3.677,5.515-9.718,3.939-9.718,3.939
				c-22.326-3.676-115.304-7.091-115.304-7.091c1.051-56.207,6.042-58.572,6.042-58.572s-2.362-2.756,79.452,4.729
				c0,0,0.919,0.207,2.388,0.727c2.905,1.027,7.961,3.273,12.32,7.546"/>
			<path fill="none" stroke="#2AD84F" stroke-width="5" stroke-miterlimit="10" d="M344.812,149.838"/>
			<path fill="none" stroke="#2AD84F" stroke-width="5" stroke-miterlimit="10" d="M222.153,265.797
				c0,0-21.537-12.213-37.033-26.921c0,0-2.759-1.181-26.922,1.183c0,0-2.134,0-20.454,14.379"/>
			
				<line fill="none" stroke="#2AD84F" stroke-width="5" stroke-miterlimit="10" x1="143.49" y1="258.575" x2="152.814" y2="250.432"/>
			<path fill="none" stroke="#2AD84F" stroke-width="5" stroke-miterlimit="10" d="M155.67,261.628
				c-6.206,1.871-5.417-2.857-5.417-2.857c0.493-5.516,3.645-11.327,3.645-11.327s1.149-3.447,19.403-3.447l10.243,0.657"/>
			<path fill="none" stroke="#2AD84F" stroke-width="5" stroke-miterlimit="10" d="M161.087,266.848
				c-3.447-0.197-4.728-2.955-4.728-2.955c-2.167-6.205,3.447-13.888,3.447-13.888s0.624-3.25,24.656,0.558"/>
			<path fill="none" stroke="#2AD84F" stroke-width="5" stroke-miterlimit="10" d="M177.766,267.767l-8.798,2.298
				c-6.238,1.444-7.092-2.626-7.092-2.626c-0.591-6.106,3.94-10.309,3.94-10.309s3.02-5.91,19.042,2.233"/>
			<path fill="none" stroke="#2AD84F" stroke-width="5" stroke-miterlimit="10" d="M168.179,263.565c0,0,5.778-1.182,9.586,3.939
				c3.809,5.123,10.375,11.163,14.839,13.921c0,0,5.91,5.384,16.284,5.91l9.456,3.94"/>
			<path fill="none" stroke="#2AD84F" stroke-width="5" stroke-miterlimit="10" d="M63.645,219.177"/>
			<path fill="none" stroke="#2AD84F" stroke-width="5" stroke-miterlimit="10" d="M202.458,287.462c0,0-2.364,9.981-2.364,72.492"
				/>
			<path fill="none" stroke="#2AD84F" stroke-width="5" stroke-miterlimit="10" d="M208.761,256.733
				c0,0,14.971-39.135,28.366-64.086c0,0,16.412-30.203,41.102-65.529c0,0,9.849-15.103,2.757-16.81l-5.843-9.718
				c0,0-0.788,13.986-33.685,37.132l14.379,18.024l8.274-7.781"/>
			<path fill="none" stroke="#2AD84F" stroke-width="5" stroke-miterlimit="10" d="M280.461,108.208c0,0,2.496-1.313,6.304,1.839
				l10.9,12.606c0,0,1.839,1.971,0.262,5.122c-2.207,4.414-4.99,14.052-4.99,14.052s-0.919,1.707-3.808,2.101
				c-2.89,0.395-5.516,1.445-5.516,1.445s-3.021,0.788-0.789,2.364l3.677,3.94c0,0,1.445,1.182-1.313,4.071
				c-2.758,2.889-33.225,42.55-71.309,96.786"/>
			<polyline fill="none" stroke="#2AD84F" stroke-width="5" stroke-miterlimit="10" points="289.392,217.601 289.392,213.136 
				247.105,214.318 246.974,218.521 			"/>
			<path fill="none" stroke="#2AD84F" stroke-width="5" stroke-miterlimit="10" d="M238.799,136.935
				c-6.829,1.182-17.696,16.58-17.696,16.58l2.626-32.569c4.859,9.849,17.466,16.678,17.466,16.678"/>
			
				<line fill="none" stroke="#2AD84F" stroke-width="5" stroke-miterlimit="10" x1="298.847" y1="125.871" x2="342.512" y2="148.984"/>
			<path fill="none" stroke="#2AD84F" stroke-width="5" stroke-miterlimit="10" d="M179.21,238.481
				c-4.333-21.668-6.5-50.822-6.5-50.822c-0.197-36.443,8.077-38.872,8.077-38.872l35.463-18.037l-7.491,9.37
				c0,0-1.183,0.393,1.444,2.1c0,0,3.546,1.839-0.525,2.89c-4.071,1.051-6.435,3.283-6.435,3.283s-4.071,0.919-4.203,41.105
				c0,0,1.445,25.739,6.829,65.924"/>
			<path fill="none" stroke="#2AD84F" stroke-width="5" stroke-miterlimit="10" d="M222.285,137.493c0,0-18.911,24.689-8.142,103.09
				"/>
			<path fill="none" stroke="#2AD84F" stroke-width="5" stroke-miterlimit="10" d="M183.052,273.742c0,0,3.151,33.98-4.728,86.772"
				/>
			<path fill="none" stroke="#2AD84F" stroke-width="5" stroke-miterlimit="10" d="M177.766,152.333c0,0-14.445,12.87-10.375,65.005
				c0,0,0.526,4.465-1.181,10.77c0,0-2.627,6.434-2.233,10.899"/>
			<path fill="none" stroke="#2AD84F" stroke-width="5" stroke-miterlimit="10" d="M249.338,332.641l-0.197,14.774
				c0,0,52.792,8.865,65.793,8.47v-16.743"/>
			<path fill="none" stroke="#2AD84F" stroke-width="5" stroke-miterlimit="10" d="M181.968,314.913c0,0-11.425,6.304-13.592,8.667
				c-2.167,2.364-16.547,15.562-16.547,15.562s-1.576,1.576-4.925-1.97c-3.349-3.545-16.152-16.941-17.729-35.654"/>
			<path fill="none" stroke="#2AD84F" stroke-width="5" stroke-miterlimit="10" d="M131.638,304.965c0,0,5.023,18.713,14.675,26.396
				c0,0,4.481,4.235,7.092-1.281c3.174-6.708,5.713-10.243,0.197-48.065"/>
			<path fill="none" stroke="#2AD84F" stroke-width="5" stroke-miterlimit="10" d="M140.502,289.009l6.206-12.509
				c0,0,1.969-3.151,5.909-2.167c0,0,4.137,0.984,0.789,6.303c-3.349,5.318-3.054,6.304-3.054,6.304l4.301,3.349"/>
			
				<line fill="none" stroke="#2AD84F" stroke-width="5" stroke-miterlimit="10" x1="143.358" y1="282.016" x2="137.646" y2="278.962"/>
			<path fill="none" stroke="#2AD84F" stroke-width="5" stroke-miterlimit="10" d="M136.957,287.531c0,0,0.886-17.827-0.788-22.851
				c0,0-1.969-2.462-5.318-2.561c0,0-2.856,0.099-2.659,3.152c0.197,3.053,1.379,23.146,1.379,23.146"/>
			<path fill="none" stroke="#2AD84F" stroke-width="5" stroke-miterlimit="10" d="M129.274,282.606c0,0-9.554-21.57-11.13-24.722
				c-1.576-3.152-1.97-5.122-5.615-6.599c0,0-7.288-1.182-3.742,6.008c3.546,7.189,9.948,24.229,9.948,24.229"/>
			<path fill="none" stroke="#2AD84F" stroke-width="5" stroke-miterlimit="10" d="M155.868,314.617c0,0-19.896,2.265-26.988-14.183
				l-12.902-14.282l-16.941-21.964l-5.188-17.04c0,0-27.84-20.88-31.78-24.951c-3.939-4.071,1.576-3.021,1.576-3.021l43.075,14.183
				l75.774,53.843c0,0,2.363,3.151-3.94,2.626c0,0-6.041,0.328-24.82-8.865"/>
			<path fill="none" stroke="#2AD84F" stroke-width="5" stroke-miterlimit="10" d="M93.718,246.492c0,0,2.758-4.563,7.584-0.033
				c0,0,3.054,3.841,2.956,8.864c2.757,5.319,9.357,13.199,9.357,13.199"/>
			
				<line fill="none" stroke="#2AD84F" stroke-width="5" stroke-miterlimit="10" x1="145.723" y1="277.813" x2="137.318" y2="273.874"/>
			
				<line fill="none" stroke="#2AD84F" stroke-width="5" stroke-miterlimit="10" x1="211.023" y1="206.964" x2="232.988" y2="159.588"/>
			<path fill="none" stroke="#2AD84F" stroke-width="5" stroke-miterlimit="10" d="M231.806,160.128c0,0,6.698-2.016,8.273,3.135
				l-0.591,25.085"/>
			<path fill="none" stroke="#2AD84F" stroke-width="5" stroke-miterlimit="10" d="M239.882,162.641c0,0,1.576-12.607,7.879-15.956"
				/>
			
				<line fill="none" stroke="#2AD84F" stroke-width="5" stroke-miterlimit="10" x1="228.654" y1="143.534" x2="232.594" y2="160.376"/>
			<path fill="none" stroke="#2AD84F" stroke-width="5" stroke-miterlimit="10" d="M267.264,92.908c0,0-10.046,23.047-34.67,23.047
				c-21.275-1.772-27.184-36.245-28.169-40.579c0,0-2.692-34.341,0.985-40.185c2.561-3.939,4.136-8.47,10.834-9.062
				c0,0,20.29-0.197,26.396-2.364c0,0,9.85-3.348,19.305,7.879c0,0,2.757,2.561,1.97,7.486c0,0-1.773,4.924-2.561,6.106
				c-0.788,1.182,4.925,4.728,4.925,4.728l2.955,17.335l2.364-1.182c0,0,6.107-9.456,6.895-9.849c0,0,6.107-3.349,7.289,5.712
				c0,0-0.197,16.35-12.41,21.472l0.591,17.335"/>
			<path fill="none" stroke="#2AD84F" stroke-width="5" stroke-miterlimit="10" d="M203.439,61.193l-3.94-33.488
				c0,0-4.53-24.229,61.657-21.668c0,0,22.259,0.788,19.502,49.246"/>
		</g>
		
			<line fill="none" stroke="#2AD84F" stroke-width="5" stroke-miterlimit="10" x1="223.729" y1="113.395" x2="224.124" y2="122.259"/>
	</g>
</g>
</svg>
