<?xml version="1.0" encoding="utf-8"?>
<!-- Generator: Adobe Illustrator 16.0.0, SVG Export Plug-In . SVG Version: 6.00 Build 0)  -->
<!DOCTYPE svg PUBLIC "-//W3C//DTD SVG 1.1//EN" "http://www.w3.org/Graphics/SVG/1.1/DTD/svg11.dtd">
<svg version="1.1" id="Layer_2" xmlns="http://www.w3.org/2000/svg" xmlns:xlink="http://www.w3.org/1999/xlink" x="0px" y="0px"
	 width="1.25em" height="1.25em" viewBox="0 0 36.978 36.978" enable-background="new 0 0 36.978 36.978" xml:space="preserve">
<g>
	<g>
		<path fill="#F54C4E" d="M0.908,5.248c-1.205-1.205-1.211-3.154-0.012-4.352l0,0c1.199-1.199,3.147-1.193,4.353,0.012
			l30.821,30.821c1.206,1.205,1.212,3.155,0.014,4.354l0,0c-1.199,1.198-3.149,1.193-4.355-0.012L0.908,5.248z"/>
		<path fill="#F54C4E" d="M5.249,36.069c-1.206,1.206-3.154,1.212-4.353,0.013l0,0c-1.199-1.198-1.194-3.147,0.012-4.353
			L31.729,0.907c1.205-1.205,3.153-1.209,4.353-0.011l0,0c1.199,1.199,1.192,3.147-0.012,4.352L5.249,36.069z"/>
	</g>
</g>
</svg>
