<?xml version="1.0" encoding="utf-8"?>
<!-- Generator: Adobe Illustrator 16.0.0, SVG Export Plug-In . SVG Version: 6.00 Build 0)  -->
<!DOCTYPE svg PUBLIC "-//W3C//DTD SVG 1.1//EN" "http://www.w3.org/Graphics/SVG/1.1/DTD/svg11.dtd">
<svg version="1.1" id="Layer_2" xmlns="http://www.w3.org/2000/svg" xmlns:xlink="http://www.w3.org/1999/xlink" x="0px" y="0px"
	 width="1.5em" height="1.5em" viewBox="0 0 49.762 49.761" enable-background="new 0 0 49.762 49.761" xml:space="preserve">
<g>
	<g>
		<path fill="#27D851" d="M3.086,27.949C1.382,27.949,0,26.575,0,24.88l0,0c0-1.695,1.382-3.069,3.086-3.069h43.587
			c1.705,0,3.088,1.374,3.088,3.069l0,0c0,1.695-1.383,3.071-3.088,3.071L3.086,27.949z"/>
		<path fill="#27D851" d="M27.949,46.674c0,1.705-1.373,3.087-3.069,3.087l0,0c-1.695,0-3.07-1.382-3.07-3.087V3.085
			C21.811,1.382,23.185,0,24.88,0l0,0c1.696,0,3.069,1.382,3.069,3.085V46.674z"/>
	</g>
</g>
</svg>
