<?xml version="1.0" encoding="utf-8"?>
<!-- Generator: Adobe Illustrator 16.0.0, SVG Export Plug-In . SVG Version: 6.00 Build 0)  -->
<!DOCTYPE svg PUBLIC "-//W3C//DTD SVG 1.1//EN" "http://www.w3.org/Graphics/SVG/1.1/DTD/svg11.dtd">
<svg version="1.1" id="Layer_1" xmlns="http://www.w3.org/2000/svg" xmlns:xlink="http://www.w3.org/1999/xlink" x="0px" y="0px"
	 width="1.5em" height="1.5em" viewBox="842.396 456.268 49.762 49.761"
	 enable-background="new 842.396 456.268 49.762 49.761" xml:space="preserve">
<g id="Layer_2">
	<g>
		<path fill="#FFFFFF" d="M845.483,484.216c-1.705,0-3.087-1.374-3.087-3.068l0,0c0-1.695,1.383-3.069,3.087-3.069h43.587
			c1.705,0,3.088,1.374,3.088,3.069l0,0c0,1.694-1.383,3.07-3.088,3.07L845.483,484.216z"/>
		<path fill="#FFFFFF" d="M870.346,502.941c0,1.704-1.373,3.087-3.068,3.087l0,0c-1.695,0-3.07-1.382-3.07-3.087v-43.589
			c0-1.703,1.375-3.085,3.07-3.085l0,0c1.695,0,3.068,1.383,3.068,3.085V502.941z"/>
	</g>
</g>
</svg>
